Coordinates
version=1
nRows=11
nColumns=33
inDegrees=yes

Units are S.I. units (second, meters, Newtons, ...)
Angles are in degrees.

endheader
time	ground_thorax_rot_x	ground_thorax_rot_y	ground_thorax_rot_z	ground_thorax_tx	ground_thorax_ty	ground_thorax_tz	clav_prot_r	clav_elev_r	scapula_abduction_r	scapula_elevation_r	scapula_upward_rot_r	scapula_winging_r	shoulder_elv_r	plane_of_elev_r	axial_rot_r	elbow_flexion_r	pro_sup_r	wrist_flex_r	wrist_dev_r	clav_prot_l	clav_elev_l	scapula_abduction_l	scapula_elevation_l	scapula_upward_rot_l	scapula_winging_l	shoulder_elv_l	plane_of_elev_l	axial_rot_l	elbow_flexion_l	pro_sup_l	wrist_flex_l	wrist_dev_l	
2.1600	28.038399	30.364855	43.633257	63.626489	784.302597	-40.554649	-2.278644	43.591236	44.029979	45.000000	12.720093	-2289.685927	-2270.880810	142.844715	-180.000000	1426.804658	64.484822	18.350268	14.432426	-14.184794	-45.000000	-36.145726	45.000000	-45.000000	-2061.454822	435.456531	26.288366	34.386044	1429.950029	-316.972466	11.700181	-15.888368	
2.1700	28.062522	30.483175	43.596544	63.596078	783.549314	-40.490749	-2.214928	43.660095	43.931141	45.000000	12.417973	-2289.533657	-2270.862482	142.926941	-180.000000	1426.853170	64.749985	18.385008	14.404455	-14.178116	-45.000000	-36.145153	45.000000	-45.000000	-2061.365177	435.417374	26.237481	33.949104	1429.965352	-316.831963	11.730015	-15.930119	
2.1800	28.135770	30.576572	43.508160	63.528258	782.814120	-40.432389	-2.123410	43.689711	43.831955	45.000000	12.163461	-2289.376203	-2270.875274	143.007033	-180.000000	1426.899332	65.018291	18.323301	14.238810	-14.040693	-45.000000	-36.085510	45.000000	-45.000000	-2061.401855	435.388231	26.091850	33.418623	1430.002348	-316.695947	11.662294	-15.962880	
2.1900	28.188798	30.682545	43.449335	63.381396	782.118401	-40.385158	-2.040267	43.744363	43.727027	45.000000	11.863739	-2289.199582	-2270.866653	143.086514	-180.000000	1426.952253	65.295587	18.330323	14.154859	-13.997646	-45.000000	-36.046576	45.000000	-45.000000	-2061.367488	435.357883	25.993229	32.981662	1430.021744	-316.549530	11.640773	-15.995863	
2.2000	28.242474	30.786428	43.387838	63.147952	781.466253	-40.350614	-1.958118	43.799294	43.614922	45.000000	11.552809	-2289.009339	-2270.857983	143.166470	-180.000000	1427.011872	65.582719	18.343104	14.082598	-13.977683	-45.000000	-36.011734	45.000000	-45.000000	-2061.317042	435.322783	25.905564	32.572631	1430.039139	-316.395118	11.619400	-16.019158	
2.2100	28.297267	30.886614	43.322105	62.814894	780.864259	-40.330825	-1.871974	43.852462	43.499504	45.000000	11.242255	-2288.815612	-2270.844710	143.239815	-180.000000	1427.072754	65.878806	18.369298	14.017891	-13.961040	-45.000000	-35.973740	45.000000	-45.000000	-2061.265621	435.294630	25.815509	32.179455	1430.052847	-316.232166	11.599707	-16.047417	
2.2200	28.350800	30.980280	43.245365	62.378710	780.314097	-40.326450	-1.792120	43.900919	43.378600	45.000000	10.935133	-2288.617871	-2270.833159	143.313644	-180.000000	1427.138381	66.185108	18.391473	13.965750	-13.960733	-45.000000	-35.949950	45.000000	-45.000000	-2061.192583	435.259027	25.744851	31.799370	1430.066934	-316.057317	11.583365	-16.063696	
2.2300	28.402913	31.067618	43.160400	61.840504	779.814302	-40.337156	-1.708155	43.941160	43.260905	45.000000	10.645831	-2288.433208	-2270.813943	143.378441	-180.000000	1427.199063	66.498286	18.417393	13.908139	-13.935504	-45.000000	-35.925064	45.000000	-45.000000	-2061.130797	435.238151	25.661535	31.406555	1430.080864	-315.871975	11.564813	-16.092799	
2.2400	28.450207	31.149027	43.067551	61.201973	779.362592	-40.362151	-1.629795	43.977846	43.136560	45.000000	10.360638	-2288.249198	-2270.797443	143.442751	-180.000000	1427.261116	66.819869	18.446547	13.870580	-13.925300	-45.000000	-35.920129	45.000000	-45.000000	-2061.039539	435.210516	25.600747	31.023423	1430.098084	-315.672013	11.554654	-16.115814	
2.2500	28.501751	31.222162	42.963211	60.465496	778.955545	-40.400278	-1.547557	44.007264	43.008819	45.000000	10.086164	-2288.069505	-2270.781995	143.499169	-180.000000	1427.315045	67.145951	18.481840	13.831182	-13.895284	-45.000000	-35.908755	45.000000	-45.000000	-2060.960195	435.196300	25.527989	30.631837	1430.116089	-315.461057	11.542654	-16.154961	
2.2600	28.556136	31.286742	42.845521	59.633654	778.589375	-40.450296	-1.467509	44.031440	42.872181	45.000000	9.816732	-2287.885436	-2270.774710	143.558122	-180.000000	1427.368785	67.475482	18.510934	13.797651	-13.871848	-45.000000	-35.910915	45.000000	-45.000000	-2060.865973	435.172057	25.466728	30.241779	1430.140570	-315.238652	11.525800	-16.183317	
